<svg xmlns="http://www.w3.org/2000/svg" width="340" height="200" viewBox="0 0 340 200"><style>* {
          font-family: 'Segoe UI', Ubuntu, "Helvetica Neue", Sans-Serif
        }</style><g class="gpsc-root"><rect x="1" y="1" rx="5" ry="5" height="99%" width="99.41176470588235%" stroke="#000000" stroke-width="1" fill="#00000000" stroke-opacity="0"></rect><text x="30" y="40" class="gpsc-item" style="--gpsc-i: 0; font-size: 22px; fill: #006AFF;">Top Languages by Repo</text><g transform="translate(0,40)"><g transform="translate(40,0)"><rect y="18" width="14" height="14" class="gpsc-item" style="--gpsc-i: 0; stroke-width: 1px;" fill="#f1e05a" stroke="#00000000"></rect><rect y="43.2" width="14" height="14" class="gpsc-item" style="--gpsc-i: 1; stroke-width: 1px;" fill="#3178c6" stroke="#00000000"></rect><rect y="68.4" width="14" height="14" class="gpsc-item" style="--gpsc-i: 2; stroke-width: 1px;" fill="#3572A5" stroke="#00000000"></rect><rect y="93.60000000000002" width="14" height="14" class="gpsc-item" style="--gpsc-i: 3; stroke-width: 1px;" fill="#ff5a03" stroke="#00000000"></rect><rect y="118.80000000000001" width="14" height="14" class="gpsc-item" style="--gpsc-i: 4; stroke-width: 1px;" fill="#ff3e00" stroke="#00000000"></rect><text x="16.8" y="30" class="gpsc-item" style="--gpsc-i: 0; fill: #417E87; font-size: 14px;">JavaScript</text><text x="16.8" y="55.2" class="gpsc-item" style="--gpsc-i: 1; fill: #417E87; font-size: 14px;">TypeScript</text><text x="16.8" y="80.4" class="gpsc-item" style="--gpsc-i: 2; fill: #417E87; font-size: 14px;">Python</text><text x="16.8" y="105.60000000000002" class="gpsc-item" style="--gpsc-i: 3; fill: #417E87; font-size: 14px;">Astro</text><text x="16.8" y="130.8" class="gpsc-item" style="--gpsc-i: 4; fill: #417E87; font-size: 14px;">Svelte</text></g><g transform="translate( 230, 80 )"><g class="arc" style="--gpsc-i: 0;"><path d="M3.67394039744206e-15,-60A60,60,0,1,1,-51.961524227066334,29.99999999999997L-30.31088913245536,17.499999999999986A35,35,0,1,0,2.1431318985078682e-15,-35Z" style="fill: #f1e05a; stroke-width: 2px;" stroke="#00000000"></path></g><g class="arc" style="--gpsc-i: 1;"><path d="M-51.961524227066334,29.99999999999997A60,60,0,0,1,-46.909888948081765,-37.40938811152405L-27.36410188638103,-21.822143065055695A35,35,0,0,0,-30.31088913245536,17.499999999999986Z" style="fill: #3178c6; stroke-width: 2px;" stroke="#00000000"></path></g><g class="arc" style="--gpsc-i: 2;"><path d="M-46.909888948081765,-37.40938811152405A60,60,0,0,1,-23.306087776481633,-55.288572712224486L-13.595217869614284,-32.25166741546428A35,35,0,0,0,-27.36410188638103,-21.822143065055695Z" style="fill: #3572A5; stroke-width: 2px;" stroke="#00000000"></path></g><g class="arc" style="--gpsc-i: 3;"><path d="M-23.306087776481633,-55.288572712224486A60,60,0,0,1,-5.974070795748928,-59.70184652192409L-3.4848746308535414,-34.826077137789056A35,35,0,0,0,-13.595217869614284,-32.25166741546428Z" style="fill: #ff5a03; stroke-width: 2px;" stroke="#00000000"></path></g><g class="arc" style="--gpsc-i: 4;"><path d="M-5.974070795748928,-59.70184652192409A60,60,0,0,1,9.555958917168885e-14,-60L5.5743093683485165e-14,-35A35,35,0,0,0,-3.4848746308535414,-34.826077137789056Z" style="fill: #ff3e00; stroke-width: 2px;" stroke="#00000000"></path></g></g></g></g></svg>